<svg height="512" viewBox="0 0 60 60" width="512" xmlns="http://www.w3.org/2000/svg"><g id="Page-1" fill="none" fill-rule="evenodd"><g id="023---First-Aider-Male" fill-rule="nonzero" transform="translate(0 -1)"><g id="color" transform="translate(1 2)"><path id="Shape" d="m28 13.5c0 1.38-.9 4.5-2 4.5-.0455082 2.2167338-.8264337 4.3554848-2.22 6.08-.24.3-.5.61-.77.92-1.75 2-4 4-6 4s-4.25-2-6-4c-.27-.31-.53-.62-.77-.92-1.40076018-1.7218926-2.18881401-3.8608959-2.24-6.08-1.1 0-2-3.12-2-4.5-.1179166-1.2367154.76756424-2.3435665 2-2.5v-1.69c-.07594661-4.82643061 3.591204-8.89085592 8.4-9.31h.6.6c4.808796.41914408 8.4759466 4.48356939 8.4 9.31v1.69c1.2324358.1564335 2.1179166 1.2632846 2 2.5z" fill="#ffe0b2"/><path id="Shape" d="m26 11v-1.69c.0759466-4.82643061-3.591204-8.89085592-8.4-9.31h-.6-.6c-.3017416.02064752-.6021679.05736629-.9.11 4.3973988.84686998 7.556598 4.72215435 7.5 9.2v1.69c1.2324358.1564335 2.1179166 1.2632846 2 2.5 0 1.38-.9 4.5-2 4.5-.0455082 2.2167338-.8264337 4.3554848-2.22 6.08-.24.3-.5.61-.77.92-1.2218562 1.5295129-2.7560125 2.7807026-4.5 3.67.4708856.2046044.9767576.3166431 1.49.33 2 0 4.25-2 6-4 .27-.31.53-.62.77-.92 1.3971626-1.723205 2.181652-3.8620818 2.23-6.08 1.1 0 2-3.12 2-4.5.1179166-1.2367154-.7675642-2.3435665-2-2.5z" fill="#dfc49c"/><path id="Shape" d="m23 25v5l-6 5-6-5v-5c1.75 2 4 4 6 4s4.25-2 6-4z" fill="#dfc49c"/><path id="Shape" d="m32 58h-15v-23l3.24 2.79c.4288124.3181931 1.031963.2433496 1.37-.17l4.39-5.62c.7751713.1169667 1.5359789.3147096 2.27.59-.1824542.4474917-.2742291.9267605-.27 1.41v4c0 .5522847.4477153 1 1 1v16c0 1.6568542 1.3431458 3 3 3z" fill="#009688"/><path id="Shape" d="m29 55v-16c-.5522847 0-1-.4477153-1-1v-4c-.0042291-.4832395.0875458-.9625083.27-1.41-.7340211-.2752904-1.4948287-.4730333-2.27-.59l-.9 1.15c-.0636364.2789416-.0971616.5639057-.1.85v4c0 .5522847.4477153 1 1 1v16c0 1.6568542 1.3431458 3 3 3h3c-1.6568542 0-3-1.3431458-3-3z" fill="#00695c"/><path id="Shape" d="m17 35v23h-15c-1.1045695 0-2-.8954305-2-2v-16c0-7 8-8 8-8l4.39 5.62c.338037.4133496.9411876.4881931 1.37.17z" fill="#009688"/><path id="Shape" d="m14 37.58v20.42h3v-23z" fill="#00695c"/><path id="Shape" d="m57 39v16c0 1.6568542-1.3431458 3-3 3h-22c-1.6568542 0-3-1.3431458-3-3v-16z" fill="#f5f5f5"/><path id="Shape" d="m54 39v16c0 1.6568542-1.3431458 3-3 3h3c1.6568542 0 3-1.3431458 3-3v-16z" fill="#cfd8dc"/><path id="Shape" d="m58 34v4c0 .5522847-.4477153 1-1 1h-28c-.5522847 0-1-.4477153-1-1v-4c-.0042291-.4832395.0875458-.9625083.27-1.41.5852772-1.5538129 2.0696225-2.5844977 3.73-2.59h22c2.209139 0 4 1.790861 4 4z" fill="#f5f5f5"/><path id="Shape" d="m54 30h-3c2.209139 0 4 1.790861 4 4v4c0 .5522847-.4477153 1-1 1h3c.5522847 0 1-.4477153 1-1v-4c0-2.209139-1.790861-4-4-4z" fill="#cfd8dc"/><path id="Shape" d="m17 35-3.24 2.79c-.4288124.3181931-1.031963.2433496-1.37-.17l-4.39-5.62 3-2z" fill="#00bcd4"/><path id="Shape" d="m11 30-1.67 1.11 4.67 3.89-2.19 1.88.58.74c.338037.4133496.9411876.4881931 1.37.17l3.24-2.79z" fill="#00838f"/><path id="Shape" d="m26 32-4.39 5.62c-.338037.4133496-.9411876.4881931-1.37.17l-3.24-2.79 6-5z" fill="#00bcd4"/><path id="Shape" d="m23 30-1.33 1.11 1.33.89-3.81 4.88 1 .91c.4288124.3181931 1.031963.2433496 1.37-.17l4.44-5.62z" fill="#00838f"/><path id="Shape" d="m48 47h-4v-4c0-.5522847-.4477153-1-1-1s-1 .4477153-1 1v4h-4c-.5522847 0-1 .4477153-1 1s.4477153 1 1 1h4v4c0 .5522847.4477153 1 1 1s1-.4477153 1-1v-4h4c.5522847 0 1-.4477153 1-1s-.4477153-1-1-1z" fill="#ef314c"/></g><g id="outline" fill="#000"><path id="Shape" d="m55 31h-2v-1c0-2.7614237-2.2385763-5-5-5h-8c-2.7614237 0-5 2.2385763-5 5v1h-2c-1.7279034.0042964-3.3311253.9004369-4.24 2.37-.4555523-.1380204-.9199548-.2449332-1.39-.32l-2.37-1.59v-4.1c.18-.22.37-.42.55-.65 1.3793784-1.7174457 2.218112-3.805579 2.41-6 1.49-1 2-4.26 2-5.2.0493687-1.3999703-.7360807-2.6959618-2-3.3v-.89c.0935348-5.34938059-3.9697582-9.85832509-9.3-10.32-.4394885-.03000388-.8805115-.03000388-1.32 0-5.3422036.44161329-9.42667528 4.95027531-9.34 10.31v.89c-1.26391928.6040382-2.04936868 1.9000297-2 3.3 0 .94.55 4.18 2 5.2.19188802 2.194421 1.03062158 4.2825543 2.41 6 .18.23.37.43.55.65v4.1l-2.33 1.6c-3.13.47-8.63 2.88-8.63 8.95v16c0 1.6568542 1.34314575 3 3 3h52c2.209139 0 4-1.790861 4-4v-15.28c.6150891-.3551046.9957131-1.0097779 1-1.72v-4c0-2.7614237-2.2385763-5-5-5zm-18-1c0-1.6568542 1.3431458-3 3-3h8c1.6568542 0 3 1.3431458 3 3v1h-14zm-7 6c0-1.6568542 1.3431458-3 3-3h22c1.6568542 0 3 1.3431458 3 3v4h-28zm-1 5.72v15.28c.0029552.7049599.1964484 1.3960071.56 2h-10.56v-19.82l1.62 1.4c.3490997.2709353.7781011.4186243 1.22.42.6085439-.0028055 1.1827052-.2825251 1.56-.76l4-5.15.66.16c-.0402261.2479689-.0602917.4987897-.06.75v4c.0042869.7102221.3849109 1.3648954 1 1.72zm-16-12.26c1.82 1.67 3.5 2.54 5 2.54s3.18-.87 5-2.54v2.07l-5 4.17-5-4.17zm8.89 9.54-2.34-2 4.52-3.76 1.49 1zm-11.89-19c.0031062-.5120317-.38106506-.9436849-.89-1-.68347371-1.0430325-1.06743113-2.2537091-1.11-3.5 0-.8.47-1.5 1-1.5.55228475 0 1-.4477153 1-1v-1.69c-.08458995-4.30408773 3.1812555-7.93717683 7.47-8.31.3526958-.03001673.7073042-.03001673 1.06 0 4.2887445.37282317 7.55459 4.00591227 7.47 8.31v1.69c0 .5522847.4477153 1 1 1 .53 0 1 .7 1 1.5-.0455521 1.2472567-.4329928 2.4580089-1.12 3.5-.5049651.0610234-.8836739.4913743-.88 1-.0457192 1.9939006-.7488109 3.9168563-2 5.47-2.34 2.87-4.53 4.53-6 4.53s-3.66-1.66-6-4.55c-1.2470646-1.5477469-1.9499086-3.4629969-2-5.45zm1.92 13.27 4.54 3.73-2.28 2-3.73-4.78zm-9.92 24.73v-16c0-5.11 4.92-6.57 6.58-6.91l4 5.15c.3729105.4720467.9384917.7511647 1.54.76.4592062-.0009017.9041154-.1597978 1.26-.45l1.62-1.37v19.82h-14c-.55228475 0-1-.4477153-1-1zm53 1h-22c-1.1045695 0-2-.8954305-2-2v-15h26v15c0 1.1045695-.8954305 2-2 2z"/><circle id="Oval" cx="22" cy="44" r="1"/><circle id="Oval" cx="22" cy="48" r="1"/><circle id="Oval" cx="22" cy="52" r="1"/><circle id="Oval" cx="22" cy="56" r="1"/></g></g></g></svg>