<svg height="512" viewBox="0 0 60 60" width="512" xmlns="http://www.w3.org/2000/svg"><g id="Page-1" fill="none" fill-rule="evenodd"><g id="024---First-Aider-Female" fill-rule="nonzero" transform="translate(-1 -1)"><g id="color" transform="translate(2 2)"><path id="Shape" d="m27 17.5c0 1.38 0 4.5-2 4.5 0 1.3-1.76 4.55-4 7-1.56 1.7-3.36 3-5 3s-3.44-1.31-5-3c-2.23-2.44-4-5.69-4-7-2 0-2-3.12-2-4.5-.03343625-.8417428.33837072-1.6485639 1-2.17.29032141-.2124524.64025248-.3279297 1-.33 0 0 7-1 9-4 2.256963 2.6039255 5.5547915 4.069627 9 4 .3586429-.0008392.7084717.111106 1 .32.6645574.5235339 1.0366938 1.3347912 1 2.18z" fill="#ffe0b2"/><path id="Shape" d="m26 15.33c-.2903214-.2124524-.6402525-.3279297-1-.33-3.4452085.069627-6.743037-1.3960745-9-4-.4066512.5721154-.9192406 1.0609425-1.51 1.44 2.1359788 1.6887747 4.7872612 2.5925408 7.51 2.56.3586429-.0008392.7084717.111106 1 .32.6616293.5214361 1.0334363 1.3282572 1 2.17 0 1.38 0 4.5-2 4.5 0 1.3-1.76 4.55-4 7-.9659383 1.1262111-2.1585641 2.0360142-3.5 2.67.4732981.2092995.9827135.324767 1.5.34 1.64 0 3.44-1.31 5-3 2.23-2.44 4-5.69 4-7 2 0 2-3.12 2-4.5.0334363-.8417428-.3383707-1.6485639-1-2.17z" fill="#dfc49c"/><path id="Shape" d="m21 29v4l-5 5-5-5v-4c1.56 1.7 3.36 3 5 3s3.44-1.31 5-3z" fill="#dfc49c"/><path id="Shape" d="m33 58h-17v-20l3.24 2.79c.4288124.3181931 1.031963.2433496 1.37-.17l4.39-5.62c1.0581632.1233229 2.0794757.4637604 3 1v2c0 .5522847.4477153 1 1 1h1v16c0 1.6568542 1.3431458 3 3 3z" fill="#009688"/><path id="Shape" d="m30 55v-16h-1c-.5522847 0-1-.4477153-1-1v-2c-.9205243-.5362396-1.9418368-.8766771-3-1l-.57.73.57.27v2c0 .5522847.4477153 1 1 1h1v16c0 1.6568542 1.3431458 3 3 3h3c-1.6568542 0-3-1.3431458-3-3z" fill="#00695c"/><path id="Shape" d="m16 38v20h-14c-1.1045695 0-2-.8954305-2-2v-13c0-7 7-8 7-8l4.39 5.62c.338037.4133496.9411876.4881931 1.37.17z" fill="#009688"/><path id="Shape" d="m13 40.58v17.42h3v-20z" fill="#00695c"/><path id="Shape" d="m56 39v16c0 1.6568542-1.3431458 3-3 3h-20c-1.6568542 0-3-1.3431458-3-3v-16z" fill="#f5f5f5"/><path id="Shape" d="m53 39v16c0 1.6568542-1.3431458 3-3 3h3c1.6568542 0 3-1.3431458 3-3v-16z" fill="#cfd8dc"/><path id="Shape" d="m58 34v4c0 .5522847-.4477153 1-1 1h-28c-.5522847 0-1-.4477153-1-1v-4c0-2.209139 1.790861-4 4-4h22c2.209139 0 4 1.790861 4 4z" fill="#f5f5f5"/><path id="Shape" d="m54 30h-3c2.209139 0 4 1.790861 4 4v4c0 .5522847-.4477153 1-1 1h3c.5522847 0 1-.4477153 1-1v-4c0-2.209139-1.790861-4-4-4z" fill="#cfd8dc"/><path id="Shape" d="m48 47h-4v-4c0-.5522847-.4477153-1-1-1s-1 .4477153-1 1v4h-4c-.5522847 0-1 .4477153-1 1s.4477153 1 1 1h4v4c0 .5522847.4477153 1 1 1s1-.4477153 1-1v-4h4c.5522847 0 1-.4477153 1-1s-.4477153-1-1-1z" fill="#ef314c"/><path id="Shape" d="m16 38-3.24 2.79c-.4288124.3181931-1.031963.2433496-1.37-.17l-4.39-5.62 4-2z" fill="#00bcd4"/><path id="Shape" d="m11 33-2 1 4 4-2.19 1.88.58.74c.338037.4133496.9411876.4881931 1.37.17l3.24-2.79z" fill="#00838f"/><path id="Shape" d="m25 35-4.39 5.62c-.338037.4133496-.9411876.4881931-1.37.17l-3.24-2.79 5-5z" fill="#00bcd4"/><path id="Shape" d="m21 33-1 1 2 1-3.81 4.88 1 .91c.4288124.3181931 1.031963.2433496 1.37-.17l4.44-5.62z" fill="#00838f"/><ellipse id="Oval" cx="16" cy="2.5" fill="#ff9801" rx="3" ry="2.5"/><path id="Shape" d="m26 15c.009944.1064349.009944.2135651 0 .32-.2915283-.208894-.6413571-.3208392-1-.32-3.4452085.069627-6.743037-1.3960745-9-4-2 3-9 4-9 4-.3586429-.0008392-.70847175.111106-1 .32-.00994404-.1064349-.00994404-.2135651 0-.32 0-5.5228475 4.4771525-10 10-10s10 4.4771525 10 10z" fill="#ff9801"/><path id="Shape" d="m16 5c-.5022129.00438055-1.0034781.04448176-1.5.12 4.8257627.73145101 8.4184543 4.83979957 8.5 9.72.6614484.1056223 1.3301722.1591202 2 .16.3586429-.0008392.7084717.111106 1 .32.009944-.1064349.009944-.2135651 0-.32 0-5.5228475-4.4771525-10-10-10z" fill="#f57c00"/></g><g id="outline" fill="#000"><path id="Shape" d="m56 31h-2v-1c0-2.7614237-2.2385763-5-5-5h-8c-2.7614237 0-5 2.2385763-5 5v1h-2c-2.7614237 0-5 2.2385763-5 5v.47c-.5518764-.2266481-1.1295535-.3845018-1.72-.47l-3.28-1.62v-3.05c1.7028388-1.8700989 3.0121367-4.0635979 3.85-6.45 2.15-.69 2.15-4.03 2.15-5.38.0103008-.959476-.3475845-1.886399-1-2.59-.0389741-4.7785119-3.1586656-8.98524617-7.72-10.41.4594716-.5659462.7133099-1.27105245.72-2-.1495581-2.06536666-1.9330581-3.62592912-4-3.5-2.0669419-.12592912-3.8504419 1.43463334-4 3.5.0066901.72894755.2605284 1.4340538.72 2-4.5613344 1.42475383-7.68102591 5.6314881-7.72 10.41-.65241547.703601-1.01030081 1.630524-1 2.59 0 1.35 0 4.69 2.15 5.38.83786331 2.3864021 2.1471612 4.5799011 3.85 6.45v3.05l-3.32 1.62c-4.44927932.6594266-7.72860128 4.502382-7.68 9v13c0 1.6568542 1.34314575 3 3 3h51c2.209139 0 4-1.790861 4-4v-15c1.1045695 0 2-.8954305 2-2v-4c0-2.7614237-2.2385763-5-5-5zm-18-1c0-1.6568542 1.3431458-3 3-3h8c1.6568542 0 3 1.3431458 3 3v1h-14zm-7 12v15c.0029552.7049599.1964484 1.3960071.56 2h-12.56v-16.82l1.62 1.4c.3490997.2709353.7781011.4186243 1.22.42.6085439-.0028055 1.1827052-.2825251 1.56-.76l4-5.16c.5390443.13496 1.0645778.3190641 1.57.55v1.37c-.0000603.535672.2147666 1.0489796.596353 1.4249267.3815864.3759472.8980353.5831084 1.433647.5750733zm-17-8.74c1.1014886 1.0106038 2.5097145 1.6231821 4 1.74 1.4902855-.1168179 2.8985114-.7293962 4-1.74v1.33l-4 4-4-4zm7.89 8.74-2.42-2 3.73-3.73 2.27 1.13zm-5.89-37.5c0-.81.92-1.5 2-1.5s2 .69 2 1.5-.92 1.5-2 1.5-2-.69-2-1.5zm2 3.5c4.5819603.00217492 8.4308938 3.4464107 8.94 8-3.111218.0579353-6.0896084-1.259289-8.14-3.6-.1888544-.2518058-.4852427-.4-.8-.4-.323824.0115294-.6219891.1792473-.8.45-1.42 2.07-6.2 3.22-8.14 3.55.50910624-4.5535893 4.3580397-7.99782508 8.94-8zm-9 15c-1 0-1-2.64-1-3.5s.47-1.5 1-1.5h.14c.68-.1 6.18-.95 8.88-3.49 2.4280171 2.2830031 5.6475214 3.5342359 8.98 3.49.53 0 1 .7 1 1.5s0 3.5-1 3.5c-.5522847 0-1 .4477153-1 1 0 1.83-4.75 9-8 9s-7.95-7.19-8-9c0-.5522847-.44771525-1-1-1zm3.8 13.22 3.74 3.78-2.36 2-3.64-4.65zm-9.8 21.78v-13c-.05099764-3.3507344 2.30957447-6.2550812 5.6-6.89l4 5.13c.3729105.4720467.9384917.7511647 1.54.76.4592062-.0009017.9041154-.1597978 1.26-.45l1.6-1.37v16.82h-13c-.55228475 0-1-.4477153-1-1zm54-1c0 1.1045695-.8954305 2-2 2h-20c-1.1045695 0-2-.8954305-2-2v-15h24zm-26-17v-4c0-1.6568542 1.3431458-3 3-3h22c1.6568542 0 3 1.3431458 3 3v4z"/><circle id="Oval" cx="22" cy="48" r="1"/><circle id="Oval" cx="22" cy="52" r="1"/><circle id="Oval" cx="22" cy="56" r="1"/></g></g></g></svg>