<?xml version="1.0"?>
<svg xmlns="http://www.w3.org/2000/svg" xmlns:xlink="http://www.w3.org/1999/xlink" xmlns:svgjs="http://svgjs.com/svgjs" version="1.1" width="512" height="512" x="0" y="0" viewBox="0 0 512 512" style="enable-background:new 0 0 512 512" xml:space="preserve" class=""><g><g xmlns="http://www.w3.org/2000/svg"><path d="m504.498 434.638h-466.949c-8.017 0-14.516-6.716-14.516-15v-93.194c0-10.031 4.851-19.398 12.928-24.962l32.162-22.156 38.026-104.783c4.249-11.709 15.082-19.466 27.184-19.466h91.605v-16.123c0-8.284 6.716-15 15-15h249.56c8.284 0 15 6.716 15 15z" fill="#f2fbff" data-original="#f2fbff" style="" class=""/><path d="m163.33 155.075c-12.1 0-22.93 7.76-27.18 19.47l-4.21 11.6-33.82 93.18-32.16 22.16c-3.25 2.23-5.97 5.08-8.07 8.34-3.12 4.85-4.86 10.62-4.86 16.62v93.19c0 8.29 6.5 15 14.52 15h-30c-8.02 0-14.52-6.71-14.52-15v-93.49c0-.08 0-.16.01-.24-.01-.19 0-.38.01-.57v-.07c.37-9.58 5.15-18.44 12.91-23.78l32.16-22.16 33.82-93.18 4.21-11.6c4.25-11.71 15.08-19.47 27.18-19.47z" fill="#dff6fd" data-original="#dff6fd" style=""/><path d="m193.875 186.14h-91.934l-33.818 93.187h125.752z" fill="#62dbfb" data-original="#62dbfb" style="" class=""/><path d="m131.94 186.145-33.82 93.18h-30l33.82-93.18z" fill="#01d0fb" data-original="#01d0fb" style="" class=""/><path d="m256.038 155.055h217.36v154.775h-217.36z" fill="#c8effe" data-original="#c8effe" style="" class=""/><path d="m23.031 340.892h481.467v-31.062h-465.155c-9.009 0-16.312 7.303-16.312 16.312z" fill="#ff000e" data-original="#fd8087" style="" class=""/><path d="m57.89 309.825c-3.12 4.85-4.86 10.62-4.86 16.62v14.45h-30v-14.75c0-.08 0-.16.01-.24-.01-.19 0-.38.01-.57v-.07c.46-8.6 7.58-15.44 16.29-15.44z" fill="#fe646f" data-original="#fe646f" style="" class=""/><path d="m193.875 155.078h-31.062v-15.531c0-8.578 6.954-15.531 15.531-15.531 8.578 0 15.531 6.954 15.531 15.531z" fill="#ff000e" data-original="#fd8087" style="" class=""/><path d="m411.311 217.203h-31.062v-31.063h-31.062v31.063h-31.062v31.062h31.062v31.062h31.062v-31.062h31.062z" fill="#ff000e" data-original="#fd8087" style="" class=""/><path d="m7.502 402.846h496.996v31.793h-496.996z" fill="#99e6fc" data-original="#99e6fc" style="" class=""/><path d="m7.5 402.845h30v31.79h-30z" fill="#62dbfb" data-original="#62dbfb" style="" class=""/><circle cx="116.22" cy="419.107" fill="#497090" r="46.593" data-original="#497090" style="" class=""/><circle cx="116.22" cy="419.107" fill="#f2fbff" r="15.531" data-original="#f2fbff" style="" class=""/><circle cx="397.751" cy="419.107" fill="#497090" r="46.593" data-original="#497090" style="" class=""/><circle cx="397.751" cy="419.107" fill="#f2fbff" r="15.531" data-original="#f2fbff" style="" class=""/><g><path d="m489.5 116.455h-59.87c-4.142 0-7.5 3.358-7.5 7.5s3.358 7.5 7.5 7.5h59.87c4.136 0 7.5 3.365 7.5 7.5v163.37h-16.1v-147.27c0-4.142-3.358-7.5-7.5-7.5h-217.36c-4.142 0-7.5 3.358-7.5 7.5v107.93c0 4.142 3.358 7.5 7.5 7.5s7.5-3.358 7.5-7.5v-100.43h202.36v139.77h-202.36v-6.65c0-4.142-3.358-7.5-7.5-7.5s-7.5 3.358-7.5 7.5v6.65h-16.102l.002-163.37c0-4.136 3.364-7.5 7.5-7.5h157c4.142 0 7.5-3.358 7.5-7.5s-3.358-7.5-7.5-7.5h-157c-12.407 0-22.5 10.093-22.5 22.5v8.62h-16.064v-8.028c0-12.699-10.332-23.031-23.031-23.031s-23.031 10.332-23.031 23.031v8.028h-21.984c-15.175 0-28.931 9.81-34.23 24.412l-37.211 102.523-30.18 20.796c-10.092 6.944-16.179 18.664-16.179 31.139v68.9h-8.03c-4.142 0-7.5 3.358-7.5 7.5v31.79c0 4.142 3.358 7.5 7.5 7.5h59.786c8.666 18.341 27.338 31.066 48.933 31.066s40.268-12.725 48.934-31.066h43.436c4.142 0 7.5-3.358 7.5-7.5s-3.358-7.5-7.5-7.5h-38.875c.837-5.6.797-11.197-.121-16.79h174.785c-.918 5.593-.958 11.19-.121 16.79h-102.977c-4.142 0-7.5 3.358-7.5 7.5s3.358 7.5 7.5 7.5h107.538c8.666 18.341 27.338 31.066 48.933 31.066s40.267-12.725 48.933-31.066h57.816c4.142 0 7.5-3.358 7.5-7.5v-295.68c0-12.407-10.093-22.5-22.5-22.5zm-319.187 23.092c0-4.428 3.603-8.031 8.031-8.031s8.031 3.603 8.031 8.031v8.028h-16.062zm-63.115 54.094h79.177v78.187h-107.551zm-44.473 233.494h-47.725v-16.79h47.847c-.918 5.593-.959 11.19-.122 16.79zm53.495 31.066c-21.556 0-39.093-17.538-39.093-39.094s17.537-39.093 39.093-39.093 39.094 17.537 39.094 39.093-17.538 39.094-39.094 39.094zm101.218-62.856h-52.637c-8.814-17.946-27.276-30.331-48.581-30.331s-39.767 12.385-48.581 30.331h-37.109v-46.95h186.908zm0-61.95h-186.908c-.313-5.018-.027-11.648 1.848-16.07h185.06zm0-31.07h-169.479l22.491-15.498h123.425c4.142 0 7.5-3.358 7.5-7.5v-93.187c0-4.142-3.358-7.5-7.5-7.5h-81.234c3.365-8.429 10.887-16.066 20.688-16.066h84.108v139.751zm15 15h264.562v16.07h-264.562zm0 78.02v-46.95h264.562v46.95h-50.668c-8.814-17.946-27.275-30.331-48.581-30.331s-39.767 12.385-48.581 30.331zm165.313 62.856c-21.556 0-39.093-17.538-39.093-39.094s17.537-39.093 39.093-39.093 39.093 17.537 39.093 39.093-17.537 39.094-39.093 39.094zm99.249-31.066h-45.755c.837-5.6.797-11.197-.121-16.79h45.876z" fill="#000000" data-original="#000000" style="" class=""/><path d="m380.249 178.641h-31.063c-4.142 0-7.5 3.358-7.5 7.5v23.562h-23.562c-4.142 0-7.5 3.358-7.5 7.5v31.063c0 4.142 3.358 7.5 7.5 7.5h23.562v23.562c0 4.142 3.358 7.5 7.5 7.5h31.063c4.142 0 7.5-3.358 7.5-7.5v-23.562h23.562c4.142 0 7.5-3.358 7.5-7.5v-31.063c0-4.142-3.358-7.5-7.5-7.5h-23.562v-23.562c0-4.142-3.358-7.5-7.5-7.5zm23.562 46.062v16.063h-23.562c-4.142 0-7.5 3.358-7.5 7.5v23.562h-16.063v-23.562c0-4.142-3.358-7.5-7.5-7.5h-23.562v-16.063h23.562c4.142 0 7.5-3.358 7.5-7.5v-23.562h16.063v23.562c0 4.142 3.358 7.5 7.5 7.5z" fill="#000000" data-original="#000000" style="" class=""/><path d="m178.344 84.861c4.142 0 7.5-3.358 7.5-7.5v-31.062c0-4.142-3.358-7.5-7.5-7.5s-7.5 3.358-7.5 7.5v31.062c0 4.142 3.358 7.5 7.5 7.5z" fill="#000000" data-original="#000000" style="" class=""/><path d="m132.208 105.037c1.464 1.464 3.384 2.197 5.303 2.197s3.839-.732 5.303-2.197c2.929-2.929 2.929-7.678 0-10.606l-21.964-21.965c-2.929-2.929-7.678-2.929-10.606 0-2.929 2.929-2.929 7.678 0 10.606z" fill="#000000" data-original="#000000" style="" class=""/><path d="m218.199 107.233c1.919 0 3.839-.732 5.303-2.197l21.964-21.964c2.929-2.929 2.929-7.678 0-10.606-2.929-2.929-7.678-2.929-10.606 0l-21.964 21.964c-2.929 2.929-2.929 7.678 0 10.606 1.464 1.465 3.384 2.197 5.303 2.197z" fill="#000000" data-original="#000000" style="" class=""/><path d="m116.22 396.076c-12.699 0-23.031 10.332-23.031 23.031 0 12.7 10.332 23.031 23.031 23.031 12.7 0 23.031-10.332 23.031-23.031s-10.332-23.031-23.031-23.031zm0 31.062c-4.428 0-8.031-3.603-8.031-8.031s3.603-8.031 8.031-8.031 8.031 3.603 8.031 8.031-3.603 8.031-8.031 8.031z" fill="#000000" data-original="#000000" style="" class=""/><path d="m397.751 396.076c-12.7 0-23.031 10.332-23.031 23.031 0 12.7 10.332 23.031 23.031 23.031s23.031-10.332 23.031-23.031-10.331-23.031-23.031-23.031zm0 31.062c-4.428 0-8.031-3.603-8.031-8.031s3.603-8.031 8.031-8.031 8.031 3.603 8.031 8.031-3.603 8.031-8.031 8.031z" fill="#000000" data-original="#000000" style="" class=""/></g></g></g></svg>
