<?xml version="1.0" encoding="iso-8859-1"?>
<!-- Generator: Adobe Illustrator 19.0.0, SVG Export Plug-In . SVG Version: 6.00 Build 0)  -->
<svg version="1.1" id="Capa_1" xmlns="http://www.w3.org/2000/svg" xmlns:xlink="http://www.w3.org/1999/xlink" x="0px" y="0px"
	 viewBox="0 0 512 512" style="enable-background:new 0 0 512 512;" xml:space="preserve">
<g>
	<g transform="translate(1 1)">
		<path style="fill:#37474F;" d="M308.931,453.4c48.555,3.84,82.603,12.885,82.603,23.467c0,14.165-61.099,25.6-136.533,25.6
			s-136.533-11.435-136.533-25.6c0-10.581,34.048-19.627,82.603-23.467H308.931z"/>
		<g>
			<path style="fill:#607D8B;" d="M287.704,453.4c40.968,3.84,69.696,12.885,69.696,23.467c0,14.165-51.552,25.6-115.2,25.6
				S127,491.032,127,476.867c0-10.581,28.728-19.627,69.696-23.467H287.704z"/>
			<path style="fill:#607D8B;" d="M323.267,404.333c-11.608,18.439-16.406,40.356-13.563,61.959
				c0.474,2.543-0.176,5.166-1.782,7.194c-1.606,2.027-4.011,3.26-6.595,3.381h-92.653c-2.584-0.12-4.989-1.353-6.595-3.381
				c-1.606-2.027-2.256-4.651-1.782-7.194c2.843-21.603-1.955-43.52-13.563-61.959H323.267z"/>
			<path style="fill:#607D8B;" d="M468.333,152.6c0,0-7.765,210.773-187.648,273.92c-12.283,4.343-25.476,5.46-38.315,3.243
				c-0.085,0-0.256,0.085-0.341,0c-4.327-0.698-8.582-1.783-12.715-3.243C49.432,363.373,41.667,152.6,41.667,152.6
				c18.981-5.186,36.933-13.584,53.077-24.832c5.338-3.595,10.44-7.529,15.275-11.776c26.097-22.567,46.529-50.949,59.648-82.859
				h170.667c13.119,31.91,33.551,60.291,59.648,82.859c4.835,4.247,9.937,8.181,15.275,11.776
				C431.401,139.016,449.353,147.414,468.333,152.6z"/>
		</g>
		<path style="fill:#CFD8DC;" d="M442.733,152.6c0,0-7.765,210.773-187.648,273.92c-4.133,1.46-8.388,2.545-12.715,3.243
			c-0.085,0-0.256,0.085-0.341,0c-4.327-0.698-8.582-1.783-12.715-3.243C49.432,363.373,41.667,152.6,41.667,152.6
			c18.981-5.186,36.933-13.584,53.077-24.832c5.338-3.595,10.44-7.529,15.275-11.776c26.097-22.567,46.529-50.949,59.648-82.859
			h145.067c13.119,31.91,33.551,60.291,59.648,82.859c4.835,4.247,9.937,8.181,15.275,11.776
			C405.801,139.016,423.753,147.414,442.733,152.6z"/>
		<path style="fill:#607D8B;" d="M340.333,33.133c0,6.485-7.936,12.373-21.077,16.896h-0.085
			c-20.815,6.184-42.46,9.119-64.171,8.704c-47.104,0-85.333-11.435-85.333-25.6s38.229-25.6,85.333-25.6
			S340.333,18.968,340.333,33.133z"/>
		<path style="fill:#CFD8DC;" d="M314.733,33.133c0,6.485-6.746,12.373-17.916,16.896h-0.073c-17.512,6.152-35.988,9.1-54.545,8.704
			c-40.038,0-72.533-11.435-72.533-25.6s32.495-25.6,72.533-25.6S314.733,18.968,314.733,33.133z"/>
		<circle style="fill:#FFEB3A;" cx="109.933" cy="127" r="17.067"/>
		<circle style="fill:#E91E63;" cx="139.8" cy="150.825" r="21.333"/>
		<g>
			<circle style="fill:#FFEB3A;" cx="178.2" cy="178.2" r="25.6"/>
			<circle style="fill:#FFEB3A;" cx="400.067" cy="127" r="17.067"/>
		</g>
		<circle style="fill:#E91E63;" cx="370.2" cy="150.825" r="21.333"/>
		<circle style="fill:#FFEB3A;" cx="331.8" cy="178.2" r="25.6"/>
		<g>
			<circle style="fill:#E91E63;" cx="225.133" cy="208.067" r="29.867"/>
			<circle style="fill:#E91E63;" cx="284.867" cy="208.067" r="29.867"/>
		</g>
	</g>
	<path d="M331.5,413.865c138.042-80.998,146.29-257.988,146.358-259.952c0.148-3.966-2.46-7.51-6.292-8.546
		c-16.132-4.444-31.48-11.354-45.502-20.484c2.033-9.314-1.285-18.985-8.608-25.089c-7.323-6.104-17.434-7.626-26.229-3.948
		c-9.955-10.575-18.802-22.14-26.402-34.516c-0.142-0.229-0.292-0.45-0.45-0.667c-5.785-9.185-10.745-18.864-14.823-28.924
		C346.306,9.981,299.615,0,256,0s-90.306,9.981-93.552,31.739c-4.078,10.06-9.038,19.739-14.823,28.924
		c-0.158,0.217-0.308,0.438-0.45,0.667c-7.6,12.376-16.447,23.941-26.402,34.516c-8.796-3.706-18.925-2.196-26.257,3.916
		c-7.332,6.111-10.642,15.802-8.581,25.122c-14.022,9.13-29.371,16.039-45.502,20.484c-3.831,1.036-6.44,4.58-6.292,8.546
		c0.069,1.964,8.315,178.943,146.358,259.951c0.119,0.294,0.255,0.58,0.408,0.857c6.399,9.578,10.514,20.497,12.029,31.916
		c-54.387,5.073-82.004,15.561-82.004,31.23C110.933,510.354,231.775,512,256,512c24.225,0,145.067-1.646,145.067-34.133
		c0-15.673-27.633-26.163-82.052-31.234c1.498-11.429,5.633-22.354,12.077-31.911C331.245,414.444,331.381,414.158,331.5,413.865z
		 M409.6,119.467c0,4.713-3.821,8.533-8.533,8.533s-8.533-3.821-8.533-8.533c0-4.713,3.82-8.533,8.533-8.533
		C405.778,110.938,409.595,114.756,409.6,119.467z M140.8,136.533c7.069,0,12.8,5.731,12.8,12.8c0,7.069-5.731,12.8-12.8,12.8
		c-7.069,0-12.8-5.731-12.8-12.8C128.008,142.267,133.734,136.541,140.8,136.533z M179.2,162.133
		c9.426,0,17.067,7.641,17.067,17.067c0,9.426-7.641,17.067-17.067,17.067c-9.426,0-17.067-7.641-17.067-17.067
		C162.144,169.779,169.779,162.144,179.2,162.133z M226.133,187.733c11.782,0,21.333,9.551,21.333,21.333
		c0,11.782-9.551,21.333-21.333,21.333c-11.782,0-21.333-9.551-21.333-21.333C204.813,197.29,214.357,187.746,226.133,187.733z
		 M226.133,170.667c-4.585,0.033-9.127,0.896-13.405,2.547c-2.894-16.259-17.014-28.112-33.528-28.147
		c-2.989,0.041-5.96,0.48-8.833,1.305c-1.488-15.228-14.266-26.855-29.567-26.905c-1.446,0.039-2.886,0.185-4.31,0.436
		c0.002-0.148,0.044-0.286,0.044-0.436c-0.029-4.234-1.122-8.394-3.177-12.096c10.566-11.239,19.972-23.513,28.077-36.638
		l0.35-0.521v0.004c4.595-7.384,8.131-13.978,10.786-19.353c4.727,3.21,9.86,5.778,15.265,7.634
		c0.594,0.292,1.221,0.511,1.868,0.653c21.5,6.427,43.862,9.502,66.298,9.115c22.439,0.386,44.803-2.689,66.304-9.118
		c0.636-0.141,1.253-0.357,1.839-0.643c5.412-1.857,10.553-4.427,15.287-7.642c2.655,5.374,6.192,11.969,10.786,19.353v-0.004
		l0.35,0.521c8.105,13.124,17.512,25.399,28.078,36.638c-2.056,3.702-3.148,7.862-3.177,12.096c0,0.149,0.042,0.287,0.044,0.436
		c-1.424-0.251-2.865-0.397-4.31-0.436c-15.301,0.049-28.078,11.677-29.567,26.905c-2.874-0.825-5.844-1.263-8.833-1.305
		c-16.514,0.034-30.634,11.888-33.528,28.147c-15.493-6.019-33.1-1.13-43.272,12.015
		C248.789,176.071,237.79,170.708,226.133,170.667z M285.867,187.733c11.782,0,21.333,9.551,21.333,21.333
		c0,11.782-9.551,21.333-21.333,21.333c-11.782,0-21.333-9.551-21.333-21.333C264.546,197.29,274.09,187.746,285.867,187.733z
		 M315.733,179.2c0-9.426,7.641-17.067,17.067-17.067s17.067,7.641,17.067,17.067c0,9.426-7.641,17.067-17.067,17.067
		C323.379,196.256,315.744,188.621,315.733,179.2z M358.4,149.333c0-7.069,5.731-12.8,12.8-12.8c7.069,0,12.8,5.731,12.8,12.8
		c0,7.069-5.731,12.8-12.8,12.8C364.134,162.126,358.408,156.399,358.4,149.333z M256,17.067c49.467,0,75.05,12.237,76.775,17.067
		C331.05,38.963,305.467,51.2,256,51.2c-49.917,0-75.508-12.459-76.817-16.937C180.492,29.525,206.083,17.067,256,17.067z
		 M110.933,110.933c4.713,0,8.533,3.821,8.533,8.533c0,4.713-3.82,8.533-8.533,8.533c-4.713,0-8.533-3.821-8.533-8.533
		C102.405,114.756,106.223,110.938,110.933,110.933z M51.683,159.85c15.294-4.865,29.868-11.758,43.331-20.494
		c4.496,3.67,10.115,5.686,15.919,5.711c0.15,0,0.287-0.042,0.435-0.044c-0.25,1.424-0.396,2.865-0.435,4.311
		c0.02,16.487,13.38,29.847,29.867,29.867c1.446-0.039,2.886-0.185,4.31-0.436c-0.002,0.149-0.044,0.286-0.044,0.436
		c0.02,18.843,15.29,34.113,34.133,34.133c2.989-0.041,5.96-0.48,8.833-1.305c1.101,15.716,11.76,29.133,26.82,33.759
		s31.413-0.495,41.146-12.883c9.733,12.388,26.086,17.508,41.146,12.883c15.06-4.626,25.72-18.043,26.82-33.759
		c2.874,0.825,5.844,1.263,8.833,1.305c18.843-0.02,34.113-15.29,34.133-34.133c0-0.15-0.042-0.287-0.044-0.436
		c1.424,0.251,2.865,0.397,4.31,0.436c16.487-0.02,29.847-13.38,29.867-29.867c-0.039-1.446-0.185-2.887-0.435-4.311
		c0.148,0.003,0.285,0.044,0.435,0.044c5.804-0.025,11.424-2.041,15.92-5.711c13.465,8.738,28.041,15.631,43.339,20.495
		c-3.225,35.575-26.667,205.279-181.45,259.613c-14.81,5.144-30.921,5.147-45.733,0.009C78.567,365.208,54.95,195.438,51.683,159.85
		z M256,494.933c-74.283,0-117.017-10.471-126.642-17.025c5.395-3.534,23.085-10.209,63.839-14.156
		c-0.413,3.992-1.165,7.941-2.247,11.806c-0.837,2.94-0.038,6.102,2.094,8.292c2.132,2.19,5.273,3.072,8.234,2.313
		c2.961-0.759,5.29-3.043,6.106-5.988c4.914-17.57,4.321-36.224-1.701-53.445c7.02,3.164,14.22,6.18,21.826,8.849
		c18.461,6.403,38.541,6.4,57-0.009c7.6-2.668,14.794-5.682,21.81-8.842c-6.023,17.222-6.617,35.876-1.702,53.446
		c0.816,2.945,3.145,5.23,6.106,5.988s6.101-0.123,8.234-2.313c2.132-2.19,2.931-5.352,2.094-8.292
		c-1.084-3.865-1.841-7.815-2.263-11.807c40.765,3.946,58.458,10.622,63.854,14.157C373.017,484.463,330.283,494.933,256,494.933z"
		/>
</g>
<g>
</g>
<g>
</g>
<g>
</g>
<g>
</g>
<g>
</g>
<g>
</g>
<g>
</g>
<g>
</g>
<g>
</g>
<g>
</g>
<g>
</g>
<g>
</g>
<g>
</g>
<g>
</g>
<g>
</g>
</svg>
